<svg xmlns="http://www.w3.org/2000/svg" viewBox="0 0 80 80" width="80" height="80">
  <ellipse cx="40" cy="76" rx="32" ry="3" fill="#000" opacity="0.22"/>
  <circle cx="28" cy="34" r="14" fill="#0ea5e9" opacity="0.15"/>
  <circle cx="28" cy="34" r="10" fill="none" stroke="#0ea5e9" stroke-width="2"/>
  <circle cx="28" cy="34" r="5" fill="none" stroke="#38bdf8" stroke-width="2"/>
  <path d="M28 34 L38 24" stroke="#7dd3fc" stroke-width="2" stroke-linecap="round"/>
  <path d="M43 28 c0 -5 4 -9 9 -9 c4 0 8 2 9 6 c5 0 9 4 9 9 c0 5 -4 9 -9 9 H45 c-5 0 -9 -4 -9 -9 c0 -3 1 -5 4 -6 Z" fill="#e0f2fe" stroke="#64748b" stroke-width="1.5"/>
  <path d="M48 49 L44 57" stroke="#facc15" stroke-width="3" stroke-linecap="round"/>
  <path d="M56 49 L52 57" stroke="#facc15" stroke-width="3" stroke-linecap="round"/>
  <text x="40" y="66" text-anchor="middle" font-family="monospace" font-size="5.5" fill="#0369a1" font-weight="bold">WX</text>
</svg>